<?xml version="1.0" encoding="UTF-8" standalone="no"?>
<!-- Created with Inkscape (http://www.inkscape.org/) -->

<svg
   width="354.64474mm"
   height="39.548302mm"
   viewBox="0 0 354.64475 39.548302"
   version="1.1"
   id="svg1"
   xml:space="preserve"
   xmlns="http://www.w3.org/2000/svg"
   xmlns:svg="http://www.w3.org/2000/svg"><defs
     id="defs1" /><g
     id="layer1"
     transform="translate(-11.278116,-121.00205)"><g
       id="layer1-5"
       transform="translate(-15.394692,19.748652)"><path
         style="font-weight:bold;font-stretch:expanded;font-size:36px;font-family:'D-DIN Exp';-inkscape-font-specification:'D-DIN Exp Bold Expanded';text-align:center;text-anchor:middle;white-space:pre;inline-size:156.655;fill:#ffffff;stroke-width:7.416;stroke-linecap:round;stroke-linejoin:round"
         d="m -2.6212578,94.19145 c -1.584,-1.332 -3.744,-2.016 -6.516,-2.016 H -19.865258 v 24.84 h 4.716 v -9.432 h 5.8320002 c 2.88,0 5.112,-0.648 6.696,-2.016 1.584,-1.332 2.37599999,-3.204 2.37599999,-5.616 0,-2.484 -0.79199999,-4.392 -2.37599999,-5.76 z m -2.34,5.724 c 0,2.376 -1.332,3.528 -3.996,3.528 h -6.1920002 v -7.164 h 6.1920002 c 1.26,0 2.232,0.324 2.952,0.9 0.684,0.612 1.044,1.512 1.044,2.736 z m 7.7040093,-7.848 v 3.564 h 4.428 v -3.564 z m 0,6.228 v 18.72 h 4.428 v -18.72 z m 10.4759725,16.848 c 1.512,1.476 3.6,2.196 6.264,2.196 2.592,0 4.608,-0.612 6.084,-1.836 1.44,-1.224 2.196,-2.88 2.196,-5.04 v -0.144 h -4.356 v 0.144 c 0,0.9 -0.36,1.62 -1.008,2.124 -0.648,0.504 -1.548,0.756 -2.7,0.756 -1.44,0 -2.52,-0.36 -3.24,-1.08 -0.72,-0.72 -1.08,-1.908 -1.08,-3.564 v -2.124 c 0,-1.584 0.324,-2.772 1.044,-3.528 0.72,-0.72 1.764,-1.116 3.168,-1.116 1.188,0 2.124,0.288 2.808,0.828 0.684,0.54 1.044,1.26 1.044,2.196 v 0.144 h 4.356 v -0.216 c 0,-2.16 -0.756,-3.852 -2.196,-5.076 -1.476,-1.224 -3.528,-1.836 -6.12,-1.836 -2.664,0 -4.752,0.756 -6.264,2.196 -1.512,1.44 -2.268,3.564 -2.268,6.336 v 2.232 c 0,2.808 0.756,4.968 2.268,6.408 z m 22.284,-6.264 h 12.852 v -2.16 c 0,-2.808 -0.792,-4.968 -2.304,-6.48 -1.548,-1.512 -3.672,-2.268 -6.336,-2.268 -2.7,0 -4.824,0.792 -6.336,2.304 -1.548,1.512 -2.304,3.708 -2.304,6.552 v 1.62 c 0,2.916 0.756,5.112 2.34,6.624 1.584,1.512 3.744,2.268 6.516,2.268 2.412,0 4.356,-0.54 5.832,-1.62 1.476,-1.08 2.268,-2.556 2.412,-4.356 v -0.216 h -4.356 l -0.036,0.108 c -0.108,0.72 -0.504,1.26 -1.152,1.62 -0.648,0.396 -1.512,0.576 -2.52,0.576 -3.096,0 -4.608,-1.476 -4.608,-4.5 z m 0,-3.06 c 0.144,-2.664 1.548,-4.032 4.212,-4.032 1.26,0 2.268,0.324 3.024,0.972 0.756,0.648 1.152,1.584 1.152,2.808 v 0.252 z m 17.927969,9.72 c 1.008,1.008 2.592,1.476 4.716,1.476 h 2.484 v -3.852 h -1.692 c -0.972,0 -1.656,-0.18 -2.016,-0.54 -0.36,-0.36 -0.54,-1.008 -0.54,-1.944 v -18.504 h -4.464 v 18.792 c 0,2.052 0.504,3.564 1.512,4.572 z m 28.763971,-9.108 c -0.648,-0.936 -1.62,-1.692 -2.88,-2.196 1.116,-0.504 1.98,-1.188 2.592,-2.088 0.612,-0.9 0.936,-1.908 0.936,-3.06 0,-2.232 -0.756,-3.924 -2.232,-5.112 -1.512,-1.188 -3.636,-1.8 -6.444,-1.8 h -10.764 v 24.84 h 11.232 c 2.736,0 4.86,-0.612 6.336,-1.836 1.476,-1.224 2.232,-2.988 2.232,-5.292 0,-1.332 -0.36,-2.484 -1.008,-3.456 z m -14.076,-10.152 h 6.264 c 2.484,0 3.744,1.044 3.744,3.096 0,1.98 -1.332,2.952 -3.924,2.952 h -6.084 z m 10.404,13.284 c 0,2.232 -1.296,3.348 -3.816,3.348 h -6.588 v -6.48 h 6.408 c 2.664,0 3.996,1.044 3.996,3.132 z m 10.223975,5.58 c 1.512,1.476 3.6,2.196 6.264,2.196 2.628,0 4.68,-0.72 6.192001,-2.196 1.512,-1.44 2.268,-3.6 2.268,-6.408 v -2.232 c 0,-2.736 -0.756,-4.86 -2.268,-6.336 -1.512001,-1.44 -3.564001,-2.196 -6.192001,-2.196 -2.664,0 -4.752,0.756 -6.264,2.196 -1.512,1.44 -2.268,3.564 -2.268,6.336 v 2.232 c 0,2.808 0.756,4.968 2.268,6.408 z m 10.296,-6.444 c 0,3.096 -1.368,4.644 -4.032,4.644 -2.736,0 -4.104,-1.548 -4.104,-4.644 v -2.124 c 0,-3.096 1.368,-4.644 4.104,-4.644 1.296,0 2.268,0.396 2.988,1.152 0.684,0.756 1.044,1.908 1.044,3.492 z m 8.171991,-16.632 v 3.564 h 4.428 v -3.564 z m 0,6.228 v 18.72 h 4.428 v -18.72 z"
         id="text1"
         transform="translate(86.678112,16.570815)"
         aria-label="PicelBoi" /><g
         id="default_default-geometry_Lines"
         transform="matrix(0.02802526,0,0,0.02802526,17.819808,90.436367)"
         style="stroke:#ffffff"><path
           id="polyline1"
           style="fill:none;stroke-width:25;stroke-linecap:round"
           d="m 594.75793,1208.8125 -15.36132,229.6814" /><path
           id="polyline2"
           style="fill:none;stroke-width:25;stroke-linecap:round"
           d="m 474.3457,1412.7186 13.21073,-238.9737" /><path
           id="polyline3"
           style="fill:none;stroke-width:25;stroke-linecap:round"
           d="m 474.3457,1412.7186 105.05091,25.7753" /><path
           id="polyline4"
           style="fill:none;stroke-width:25;stroke-linecap:round"
           d="m 328.39358,1341.8721 104.12699,128.4973 204.27313,91.1448" /><path
           id="polyline5"
           style="fill:none;stroke-width:25;stroke-linecap:round"
           d="M 594.75793,1208.8125 717.84564,986.6687" /><path
           id="polyline6"
           style="fill:none;stroke-width:25;stroke-linecap:round"
           d="M 619.24207,938.02081 487.55643,1173.7449" /><path
           id="polyline7"
           style="fill:none;stroke-width:25;stroke-linecap:round"
           d="m 1037.8782,708.07605 151.2824,-39.0846 30.2861,11.84583" /><path
           id="polyline8"
           style="fill:none;stroke-width:25;stroke-linecap:round"
           d="m 1080.9661,628.79382 -118.99259,17.318" /><path
           id="polyline9"
           style="fill:none;stroke-width:25;stroke-linecap:round"
           d="M 889.39325,652.96106 1043.0232,618.73828" /><path
           id="polyline10"
           style="fill:none;stroke-width:25;stroke-linecap:round"
           d="M 1037.8782,708.07605 866.96643,818.3501 717.84564,986.6687" /><path
           id="polyline11"
           style="fill:none;stroke-width:25;stroke-linecap:round"
           d="M 619.24207,938.02081 780.29547,758.41894 961.97351,646.11182" /><path
           id="polyline12"
           style="fill:none;stroke-width:25;stroke-linecap:round"
           d="M 889.39325,652.96106 718.91229,755.27808 572.80127,913.79736" /><path
           id="polyline13"
           style="fill:none;stroke-width:25;stroke-linecap:round"
           d="m 1080.9661,628.79382 108.1945,40.19763" /><path
           id="polyline14"
           style="fill:none;stroke-width:25;stroke-linecap:round"
           d="m 1466.6201,1011.7036 72.8418,107.4402 -21.8572,131.4963" /><path
           id="polyline15"
           style="fill:none;stroke-width:25;stroke-linecap:round"
           d="m 1446.8134,995.52838 19.8067,16.17522" /><path
           id="polyline16"
           style="fill:none;stroke-width:25;stroke-linecap:round"
           d="m 449.80701,1239.7828 -0.74536,-107.326" /><path
           id="polyline17"
           style="fill:none;stroke-width:25;stroke-linecap:round"
           d="M 520.16614,884.8562 465.40747,990.09625 449.06165,1132.4568" /><path
           id="polyline18"
           style="fill:none;stroke-width:25;stroke-linecap:round"
           d="m 584.94391,1359.4376 125.96881,47.3136" /><path
           id="polyline19"
           style="fill:none;stroke-width:25;stroke-linecap:round"
           d="m 1324.4063,1278.0305 -177.2831,93.776 -219.72543,49.9672 -216.48505,-15.0225" /><path
           id="polyline20"
           style="fill:none;stroke-width:25;stroke-linecap:round"
           d="m 1324.4063,1278.0305 106.4014,-109.8708" /><path
           id="polyline21"
           style="fill:none;stroke-width:25;stroke-linecap:round"
           d="m 474.3457,1412.7186 -29.26953,-66.0904" /><path
           id="polyline22"
           style="fill:none;stroke-width:25;stroke-linecap:round"
           d="m 454.64224,1124.6104 -9.56607,222.0178" /><path
           id="polyline23"
           style="fill:none;stroke-width:25;stroke-linecap:round"
           d="m 1329.0609,749.1206 59.5764,83.91724 50.8134,95.08154 14.961,134.87032" /><path
           id="polyline24"
           style="fill:none;stroke-width:25;stroke-linecap:round"
           d="m 1394.0082,1391.6809 -215.2241,123.2925 -272.88975,66.8954 -269.10065,-20.3546" /><path
           id="polyline25"
           style="fill:none;stroke-width:25;stroke-linecap:round"
           d="m 1454.4117,1062.9897 -23.604,105.17" /><path
           id="polyline26"
           style="fill:none;stroke-width:25;stroke-linecap:round"
           d="m 520.16614,884.8562 77.01159,-94.66553 130.20685,-83.28064" /><path
           id="polyline27"
           style="fill:none;stroke-width:25;stroke-linecap:round"
           d="M 1043.0232,618.73828 879.96435,631.07654 727.38458,706.91003" /><path
           id="polyline28"
           style="fill:none;stroke-width:25;stroke-linecap:round"
           d="m 1080.9661,628.79382 -37.9429,-10.05554" /><path
           id="polyline29"
           style="fill:none;stroke-width:25;stroke-linecap:round"
           d="m 328.39358,1341.8721 6.07157,-136.4768 120.57104,-113.3899" /><path
           id="polyline30"
           style="fill:none;stroke-width:25;stroke-linecap:round"
           d="m 1394.0082,1391.6809 123.5965,-141.0408" /><path
           id="polyline31"
           style="fill:none;stroke-width:25;stroke-linecap:round"
           d="M 454.64224,1124.6104 572.80127,913.79736" /><path
           id="polyline32"
           style="fill:none;stroke-width:25;stroke-linecap:round"
           d="M 1329.0609,749.1206 1219.4467,680.83728" /></g></g><path
       id="rect2"
       style="opacity:0.999378;fill:#1a1a1a;stroke-width:0.284047"
       d="m 190.15265,121.00205 h 158.78904 l 16.98119,39.5483 H 207.13384 Z" /><path
       d="m 212.74451,153.52066 v -25.48891 h 4.87184 v 25.48891 z m 10.59097,0 V 135.163 h 4.02456 v 1.97698 q 1.23561,-0.84728 2.61244,-1.58865 1.41213,-0.74137 3.03607,-0.74137 2.75365,0 4.09517,1.65925 1.34153,1.65926 1.34153,4.48351 v 12.56794 h -4.3776 v -11.93248 q 0,-1.87107 -0.56485,-2.54183 -0.56485,-0.70607 -1.69456,-0.70607 -1.44743,0 -2.50652,0.67077 -1.0238,0.63545 -1.58865,1.27091 v 13.2387 z m 24.71223,-14.82734 v 14.82734 h -4.3776 v -14.82734 h -2.54183 V 135.163 h 2.50653 v -2.25941 q 0,-1.48273 0.28242,-2.47122 0.31773,-1.0238 0.95319,-1.62395 0.63546,-0.60015 1.62395,-0.84728 0.98849,-0.28242 2.33001,-0.28242 h 2.89486 v 3.53032 h -1.20031 q -1.37682,0 -1.94168,0.45894 -0.52954,0.45894 -0.52954,1.51804 v 1.97698 h 3.70683 v 3.53032 z m 16.83963,5.64851 q 0,-3.10668 -0.88258,-4.55411 -0.88258,-1.44744 -2.71835,-1.44744 -1.83576,0 -2.71834,1.44744 -0.88258,1.44743 -0.88258,4.55411 0,3.10668 0.88258,4.55411 0.88258,1.44743 2.71834,1.44743 1.83577,0 2.71835,-1.44743 0.88258,-1.44743 0.88258,-4.55411 z m -11.57945,0 q 0,-2.1888 0.52955,-3.95396 0.56485,-1.76516 1.58864,-3.00077 1.02379,-1.23561 2.50653,-1.90637 1.48273,-0.67077 3.3538,-0.67077 1.87107,0 3.35381,0.67077 1.48273,0.67076 2.50652,1.90637 1.0238,1.23561 1.55335,3.00077 0.56485,1.76516 0.56485,3.95396 0,2.1888 -0.56485,3.95396 -0.52955,1.76516 -1.55335,3.00077 -1.02379,1.23561 -2.50652,1.90637 -1.48274,0.67076 -3.35381,0.67076 -1.87107,0 -3.3538,-0.67076 -1.48274,-0.67076 -2.50653,-1.90637 -1.02379,-1.23561 -1.58864,-3.00077 -0.52955,-1.76516 -0.52955,-3.95396 z m 35.51502,9.17883 h -18.14585 v -4.13047 l 11.89718,-17.26327 h -11.0852 v -4.09517 H 288.717 v 3.88335 l -12.32082,17.51039 h 12.42673 z m 13.3446,-9.17883 q 0,-3.10668 -0.88258,-4.55411 -0.88258,-1.44744 -2.71835,-1.44744 -1.83576,0 -2.71834,1.44744 -0.88258,1.44743 -0.88258,4.55411 0,3.10668 0.88258,4.55411 0.88258,1.44743 2.71834,1.44743 1.83577,0 2.71835,-1.44743 0.88258,-1.44743 0.88258,-4.55411 z m -11.57945,0 q 0,-2.1888 0.52955,-3.95396 0.56485,-1.76516 1.58864,-3.00077 1.0238,-1.23561 2.50653,-1.90637 1.48273,-0.67077 3.3538,-0.67077 1.87107,0 3.35381,0.67077 1.48273,0.67076 2.50652,1.90637 1.0238,1.23561 1.55335,3.00077 0.56485,1.76516 0.56485,3.95396 0,2.1888 -0.56485,3.95396 -0.52955,1.76516 -1.55335,3.00077 -1.02379,1.23561 -2.50652,1.90637 -1.48274,0.67076 -3.35381,0.67076 -1.87107,0 -3.3538,-0.67076 -1.48273,-0.67076 -2.50653,-1.90637 -1.02379,-1.23561 -1.58864,-3.00077 -0.52955,-1.76516 -0.52955,-3.95396 z m 19.06372,9.17883 V 135.163 h 4.02457 v 1.97698 q 1.23561,-0.84728 2.61244,-1.58865 1.41212,-0.74137 3.03607,-0.74137 2.75365,0 4.09517,1.65925 1.34152,1.65926 1.34152,4.48351 v 12.56794 h -4.37759 v -11.93248 q 0,-1.87107 -0.56485,-2.54183 -0.56486,-0.70607 -1.69456,-0.70607 -1.44743,0 -2.50652,0.67077 -1.0238,0.63545 -1.58865,1.27091 v 13.2387 z m 29.65468,-11.43824 q -0.0706,-1.90637 -1.02379,-2.96547 -0.91788,-1.05909 -2.50653,-1.05909 -1.58864,0 -2.54183,1.05909 -0.91788,1.0591 -0.98849,2.96547 z m -7.06064,2.96547 q 0.0706,2.85956 1.16501,4.09517 1.0944,1.20031 2.64774,1.20031 1.51804,0 2.40062,-0.60015 0.88258,-0.63546 1.69455,-1.58865 l 3.17729,1.97698 q -1.27092,1.97698 -3.17729,2.85956 -1.87107,0.88258 -4.51881,0.88258 -1.80046,0 -3.24789,-0.67076 -1.41213,-0.67076 -2.43592,-1.90637 -0.98849,-1.23561 -1.55334,-3.00077 -0.52955,-1.76516 -0.52955,-3.95396 0,-2.1888 0.52955,-3.95396 0.56485,-1.76516 1.58864,-3.00077 1.02379,-1.23561 2.50653,-1.90637 1.48273,-0.67077 3.3538,-0.67077 1.80046,0 3.17729,0.70607 1.41213,0.67076 2.36531,1.83576 0.95319,1.16501 1.44743,2.71835 0.49425,1.51804 0.49425,3.17729 v 1.80046 z"
       id="text2"
       style="font-weight:bold;font-size:35.3032px;font-family:'TradeGothic LT';-inkscape-font-specification:'TradeGothic LT Bold';opacity:0.999378;fill:#ffffff;stroke-width:2.33516"
       aria-label="InfoZone" /></g></svg>
